<?xml version="1.0" encoding="utf-8"?>
<!-- Generator: Adobe Illustrator 22.0.1, SVG Export Plug-In . SVG Version: 6.00 Build 0)  -->
<svg version="1.1" id="레이어_1" xmlns="http://www.w3.org/2000/svg" xmlns:xlink="http://www.w3.org/1999/xlink" x="0px"
	 y="0px" viewBox="0 0 304 124.1" style="enable-background:new 0 0 304 124.1;" xml:space="preserve">
<style type="text/css">
	.st0{fill:#231815;}
	.st1{fill:#CF102B;}
</style>
<g>
	<g>
		<g>
			<g>
				<path class="st0" d="M153.1,83.3l3.7,16l2.3-24.5l4.3,0.4l-3.6,37.9h-4.2l-3.9-16.9l-3.9,16.9h-4.2l-3.6-37.9l4.3-0.4l2.3,24.5
					l3.7-16H153.1z"/>
			</g>
			<path class="st0" d="M91.9,97.5l-6.2-2.7c-2.2-1-3.7-1.7-3.7-4.3c0-2.5,2.2-3.6,4.5-3.6c2.7,0,4.3,1.5,5.1,4.6l0.1,0.3l4.2-1.2
				l-0.1-0.3c-1.3-4.9-4.5-7.6-9.2-7.6c-5.2,0-8.9,3.3-8.9,8c0,5.2,3.6,6.7,7.4,8.2c0.4,0.1,0.7,0.3,1.1,0.5l0.7,0.3
				c2.6,1,5,2,5,5.1c0,3.4-2.7,4.6-5.2,4.6c-3.3,0-5.3-1.9-6.1-6l-0.1-0.3l-3.9,1.2l0,0.3c1,5.6,4.7,8.9,10,8.9c5.8,0,9.5-3.5,9.5-9
				C96.1,101.5,94.7,99,91.9,97.5z"/>
			<path class="st0" d="M286.9,97.5l-6.2-2.7c-2.2-1-3.7-1.7-3.7-4.3c0-2.5,2.2-3.6,4.5-3.6c2.7,0,4.3,1.5,5.1,4.6l0.1,0.3l4.2-1.2
				l-0.1-0.3c-1.3-4.9-4.5-7.6-9.2-7.6c-5.2,0-8.9,3.3-8.9,8c0,5.2,3.6,6.7,7.4,8.2c0.4,0.1,0.7,0.3,1.1,0.5l0.7,0.3
				c2.6,1,5,2,5,5.1c0,3.4-2.7,4.6-5.2,4.6c-3.3,0-5.3-1.9-6.1-6l-0.1-0.3l-3.9,1.2l0,0.3c1,5.6,4.7,8.9,10,8.9c5.8,0,9.5-3.5,9.5-9
				C291.1,101.5,289.7,99,286.9,97.5z"/>
			<path class="st0" d="M185.5,82.8c-2.5,0-10.7,1.1-10.7,15.4c0,14.3,8.2,15.4,10.7,15.4c9.6,0,10.7-10.7,10.7-15.4
				C196.1,94.6,195.4,82.8,185.5,82.8z M185.5,109.4c-5.3,0-6.1-7-6.1-11.2c0-5.1,1.1-11.3,6.1-11.3c5.1,0,6.1,6.1,6.1,11.3
				C191.6,102.4,190.8,109.4,185.5,109.4z"/>
			<polygon class="st0" points="31.4,75.1 11,75.1 11,79.1 19,79.1 19,113.1 23.4,113.1 23.4,79.1 31.4,79.1 			"/>
			<polygon class="st0" points="63.2,87.3 63.2,83.3 48.7,83.3 44.4,83.3 44.4,87.3 44.4,96.2 44.4,100.2 44.4,109.1 44.4,113.1 
				48.7,113.1 63.2,113.1 63.2,109.1 48.7,109.1 48.7,100.2 63.2,100.2 63.2,96.2 48.7,96.2 48.7,87.3 			"/>
			<polygon class="st0" points="127.6,83.3 107.3,83.3 107.3,87.2 115.3,87.2 115.3,113.1 115.5,113.1 119.5,113.1 119.7,113.1 
				119.7,87.2 127.6,87.2 			"/>
			<g>
				<polygon class="st0" points="261.6,85.3 258.2,82.9 247.3,98.2 247.3,98.2 247.3,98.2 258.2,113.6 261.6,111.2 252.5,98.2 				
					"/>
				<path class="st0" d="M228.9,91.9c0-4.8-3.9-8.7-8.7-8.7h-5.9h-4.3v29.8v0h4.3v-12.5h4.6l7.5,12.9l3.7-2.1l-6.6-11.4
					C226.6,98.7,228.9,95.6,228.9,91.9z M214.4,87.3h5.7c2.6,0,4.7,2.1,4.7,4.7c0,2.6-2.1,4.7-4.7,4.7h-5.7V87.3z"/>
				<polygon class="st0" points="247.3,83.3 243.1,83.3 243.1,113.1 247.3,113.1 247.3,98.2 247.3,98.2 				"/>
			</g>
		</g>
	</g>
	<path class="st1" d="M268.2,74.4V9.1l26.3,21.5v35.1L268.2,74.4z M274,21.7v44.2l15.6-4.2V33.5L274,21.7z"/>
</g>
</svg>
